<svg id="visual" viewBox="0 0 3840 2160" width="3840" height="2160" xmlns="http://www.w3.org/2000/svg" xmlns:xlink="http://www.w3.org/1999/xlink" version="1.1"><g transform="translate(-34.04460078951257 2113.126473028834)"><path d="M424.9 -496.4C534.4 -414.5 595.6 -265.2 633.7 -103.7C671.7 57.8 686.6 231.4 622.4 375.2C558.3 519 415.1 633 261.1 667.5C107.1 702 -57.8 656.8 -193.9 584.8C-330 512.7 -437.4 413.6 -508.1 292.6C-578.8 171.6 -612.9 28.8 -592.4 -107.4C-571.9 -243.6 -496.8 -373 -388.9 -455.3C-281.1 -537.5 -140.6 -572.5 8.6 -582.7C157.7 -592.9 315.4 -578.4 424.9 -496.4" fill="#6600FF"></path></g></svg>